#N canvas 178 191 841 966 10;
#X floatatom 42 232 5 0 0 0 - - -, f 5;
#X obj 165 338 dac~ 1;
#X obj 165 271 *~ 0.1;
#X obj 165 248 osc~;
#X obj 41 376 dac~ 1;
#X obj 42 345 *~ 0.1;
#X obj 42 322 osc~;
#X floatatom 42 295 5 0 0 0 - - -, f 5;
#X obj 92 110 vsl 15 128 0 10 0 0 empty empty empty 0 -9 0 10 -262144
-1 -1 4900 1;
#X floatatom 92 256 5 0 0 0 - - -, f 5;
#X obj 42 272 *;
#X obj 42 45 vsl 15 128 0 1234 0 0 empty empty empty 0 -9 0 10 -262144
-1 -1 5630 1;
#X obj 42 208 line;
#X msg 41 182 \$1 100;
#X obj 266 245 noise~;
#X obj 266 319 dac~ 1;
#X obj 266 265 *~ 1;
#X connect 0 0 3 0;
#X connect 0 0 10 0;
#X connect 2 0 1 0;
#X connect 3 0 2 0;
#X connect 5 0 4 0;
#X connect 6 0 5 0;
#X connect 7 0 6 0;
#X connect 8 0 9 0;
#X connect 9 0 10 1;
#X connect 10 0 7 0;
#X connect 11 0 13 0;
#X connect 12 0 0 0;
#X connect 13 0 12 0;
#X connect 14 0 16 0;
