#N canvas 1137 113 450 937 10;
#X floatatom 36 146 5 0 0 0 - - -, f 5;
#X obj 159 252 dac~ 1;
#X obj 159 185 *~ 0.1;
#X obj 159 162 osc~;
#X obj 35 449 dac~ 1;
#X obj 36 418 *~ 0.1;
#X obj 36 395 osc~;
#X floatatom 36 368 5 0 0 0 - - -, f 5;
#X obj 86 183 vsl 15 128 0 10 0 0 empty empty empty 0 -9 0 10 -262144
-1 -1 5334 1;
#X floatatom 86 329 5 0 0 0 - - -, f 5;
#X obj 36 345 *;
#X obj 36 -41 vsl 15 128 0 1234 0 0 empty empty empty 0 -9 0 10 -262144
-1 -1 5300 1;
#X obj 36 122 line;
#X msg 35 96 \$1 100;
#X connect 0 0 3 0;
#X connect 0 0 10 0;
#X connect 2 0 1 0;
#X connect 3 0 2 0;
#X connect 5 0 4 0;
#X connect 6 0 5 0;
#X connect 7 0 6 0;
#X connect 8 0 9 0;
#X connect 9 0 10 1;
#X connect 10 0 7 0;
#X connect 11 0 13 0;
#X connect 12 0 0 0;
#X connect 13 0 12 0;
