#N canvas 0 113 1920 967 10;
#X obj 36 9 vsl 15 128 0 1234 0 0 empty empty empty 0 -9 0 10 -262144
-1 -1 2524 1;
#X floatatom 36 146 5 0 0 0 - - -, f 5;
#X obj 159 252 dac~ 1;
#X obj 159 185 *~ 0.1;
#X obj 159 162 osc~;
#X obj 35 449 dac~ 1;
#X obj 36 418 *~ 0.1;
#X obj 36 395 osc~;
#X floatatom 36 368 5 0 0 0 - - -, f 5;
#X obj 86 183 vsl 15 128 0 10 0 0 empty empty empty 0 -9 0 10 -262144
-1 -1 2034 1;
#X floatatom 86 329 5 0 0 0 - - -, f 5;
#X obj 36 345 *;
#X connect 0 0 1 0;
#X connect 1 0 4 0;
#X connect 1 0 11 0;
#X connect 3 0 2 0;
#X connect 4 0 3 0;
#X connect 6 0 5 0;
#X connect 7 0 6 0;
#X connect 8 0 7 0;
#X connect 9 0 10 0;
#X connect 10 0 11 1;
#X connect 11 0 8 0;
