#N canvas 0 93 1920 987 10;
#X floatatom 104 206 5 0 0 0 - - -;
#X obj 105 356 dac~ 1;
#X obj 105 266 osc~;
#X obj 104 19 vsl 15 128 0 5555 0 0 empty empty empty 0 -9 0 10 -262144
-1 -1 200 1;
#X obj 104 182 line;
#X msg 103 156 \$1 100;
#X obj 910 276 noise~;
#X floatatom 1441 423 5 0 0 0 - - -;
#X obj 1440 733 dac~ 1;
#X obj 1440 603 osc~;
#X obj 1441 513 osc~;
#X floatatom 1441 486 5 0 0 0 - - -;
#X obj 1413 219 vsl 15 128 0 1234 0 0 empty empty empty 0 -9 0 10 -262144
-1 -1 200 1;
#X obj 1441 399 line;
#X msg 1440 373 \$1 100;
#X obj 1441 536 *~ 10;
#X obj 1440 567 +~ 100;
#X obj 1548 377 vsl 15 128 0 1234 0 0 empty empty empty 0 -9 0 10 -262144
-1 -1 1600 1;
#X obj 1602 380 vsl 15 128 0 1234 0 0 empty empty empty 0 -9 0 10 -262144
-1 -1 2000 1;
#X obj 105 289 *~ 1;
#X obj 1440 626 *~ 0.5;
#X obj 202 44 vsl 15 128 0 1 0 0 empty empty empty 0 -9 0 10 -262144
-1 -1 0 1;
#X floatatom 202 177 5 0 0 0 - - -;
#X obj 1625 380 vsl 15 128 0 1 0 0 empty empty empty 0 -9 0 10 -262144
-1 -1 0 1;
#X floatatom 1625 513 5 0 0 0 - - -;
#X obj 1077 146 vsl 15 128 0 1 0 0 empty empty empty 0 -9 0 10 -262144
-1 -1 1400 1;
#X floatatom 1040 292 5 0 0 0 - - -;
#X obj 912 456 dac~ 1;
#X obj 1026 144 vsl 15 128 0 20000 0 0 empty empty empty 0 -9 0 10
-262144 -1 -1 400 1;
#X obj 910 323 lop~;
#X obj 911 344 *~ 0.2;
#X obj 914 396 +~;
#X obj 1101 194 vsl 15 128 0 1 0 0 empty empty empty 0 -9 0 10 -262144
-1 -1 300 1;
#X floatatom 1064 340 5 0 0 0 - - -;
#X obj 1540 564 vsl 15 128 0 1 0 0 empty empty empty 0 -9 0 10 -262144
-1 -1 5300 1;
#X floatatom 1503 710 5 0 0 0 - - -;
#X obj 1440 689 +~;
#X floatatom 410 431 5 0 0 0 - - -;
#X obj 410 651 dac~ 1;
#X obj 410 244 vsl 15 128 0 5555 0 0 empty empty empty 0 -9 0 10 -262144
-1 -1 111 1;
#X obj 410 407 line;
#X msg 409 381 \$1 100;
#X obj 410 584 *~ 1;
#X obj 577 401 vsl 15 128 0 1 0 0 empty empty empty 0 -9 0 10 -262144
-1 -1 22400 1;
#X floatatom 577 534 5 0 0 0 - - -;
#X obj 410 491 phasor~;
#X floatatom 351 572 5 0 0 0 - - -;
#X obj 410 514 expr~ $v1>0.5 \;;
#X connect 0 0 2 0;
#X connect 2 0 19 0;
#X connect 3 0 5 0;
#X connect 4 0 0 0;
#X connect 5 0 4 0;
#X connect 6 0 29 0;
#X connect 7 0 11 0;
#X connect 9 0 20 0;
#X connect 10 0 15 0;
#X connect 11 0 10 0;
#X connect 12 0 14 0;
#X connect 13 0 7 0;
#X connect 14 0 13 0;
#X connect 15 0 16 0;
#X connect 16 0 9 0;
#X connect 17 0 16 1;
#X connect 18 0 15 1;
#X connect 19 0 1 0;
#X connect 20 0 36 0;
#X connect 21 0 22 0;
#X connect 22 0 19 1;
#X connect 23 0 24 0;
#X connect 24 0 20 1;
#X connect 25 0 26 0;
#X connect 26 0 30 1;
#X connect 28 0 29 1;
#X connect 29 0 30 0;
#X connect 30 0 31 0;
#X connect 31 0 27 0;
#X connect 32 0 33 0;
#X connect 33 0 31 1;
#X connect 34 0 35 0;
#X connect 35 0 36 1;
#X connect 36 0 8 0;
#X connect 37 0 45 0;
#X connect 39 0 41 0;
#X connect 40 0 37 0;
#X connect 41 0 40 0;
#X connect 42 0 38 0;
#X connect 43 0 44 0;
#X connect 44 0 42 1;
#X connect 45 0 47 0;
#X connect 47 0 42 0;
#X connect 47 0 46 0;
