#N canvas 934 299 753 566 10;
#X floatatom 104 206 5 0 0 0 - - -;
#X obj 105 356 dac~ 1;
#X obj 105 266 osc~;
#X obj 104 19 vsl 15 128 0 5555 0 0 empty empty empty 0 -9 0 10 -262144
-1 -1 0 1;
#X obj 104 182 line;
#X msg 103 156 \$1 100;
#X obj 537 273 noise~;
#X floatatom 295 221 5 0 0 0 - - -;
#X obj 294 491 dac~ 1;
#X obj 294 401 osc~;
#X obj 295 311 osc~;
#X floatatom 295 284 5 0 0 0 - - -;
#X obj 267 17 vsl 15 128 0 1234 0 0 empty empty empty 0 -9 0 10 -262144
-1 -1 700 1;
#X obj 295 197 line;
#X msg 294 171 \$1 100;
#X obj 295 334 *~ 10;
#X obj 294 365 +~ 100;
#X obj 402 175 vsl 15 128 0 1234 0 0 empty empty empty 0 -9 0 10 -262144
-1 -1 1527 1;
#X obj 456 178 vsl 15 128 0 1234 0 0 empty empty empty 0 -9 0 10 -262144
-1 -1 500 1;
#X obj 105 289 *~ 1;
#X obj 294 424 *~ 0.5;
#X obj 253 255 vsl 15 128 0 1 0 0 empty empty empty 0 -9 0 10 -262144
-1 -1 439 1;
#X floatatom 253 388 5 0 0 0 - - -;
#X obj 479 178 vsl 15 128 0 1 0 0 empty empty empty 0 -9 0 10 -262144
-1 -1 8600 1;
#X floatatom 479 311 5 0 0 0 - - -;
#X obj 704 143 vsl 15 128 0 1 0 0 empty empty empty 0 -9 0 10 -262144
-1 -1 0 1;
#X floatatom 667 289 5 0 0 0 - - -;
#X obj 539 453 dac~ 1;
#X obj 653 141 vsl 15 128 0 20000 0 0 empty empty empty 0 -9 0 10 -262144
-1 -1 5400 1;
#X obj 537 320 lop~;
#X obj 538 341 *~ 0.2;
#X obj 541 393 +~;
#X obj 728 191 vsl 15 128 0 1 0 0 empty empty empty 0 -9 0 10 -262144
-1 -1 0 1;
#X floatatom 691 337 5 0 0 0 - - -;
#X connect 0 0 2 0;
#X connect 2 0 19 0;
#X connect 3 0 5 0;
#X connect 4 0 0 0;
#X connect 5 0 4 0;
#X connect 6 0 29 0;
#X connect 7 0 11 0;
#X connect 9 0 20 0;
#X connect 10 0 15 0;
#X connect 11 0 10 0;
#X connect 12 0 14 0;
#X connect 13 0 7 0;
#X connect 14 0 13 0;
#X connect 15 0 16 0;
#X connect 16 0 9 0;
#X connect 17 0 16 1;
#X connect 18 0 15 1;
#X connect 19 0 1 0;
#X connect 20 0 8 0;
#X connect 21 0 22 0;
#X connect 22 0 19 1;
#X connect 23 0 24 0;
#X connect 24 0 20 1;
#X connect 25 0 26 0;
#X connect 26 0 30 1;
#X connect 28 0 29 1;
#X connect 29 0 30 0;
#X connect 30 0 31 0;
#X connect 31 0 27 0;
#X connect 32 0 33 0;
#X connect 33 0 31 1;
