#N canvas 0 64 1920 1016 10;
#X floatatom 104 416 5 0 0 0 - - -;
#X obj 104 454 osc~;
#X obj 104 229 vsl 15 128 0 24000 0 0 empty empty empty 0 -9 0 10 -262144
-1 -1 1 1;
#X obj 104 392 line;
#X msg 103 366 \$1 100;
#X obj 805 174 noise~;
#X floatatom 1204 354 5 0 0 0 - - -;
#X obj 1203 534 osc~;
#X obj 1204 434 osc~;
#X floatatom 1204 407 5 0 0 0 - - -;
#X obj 1203 150 vsl 15 128 0.001 200 0 0 empty empty empty 0 -9 0 10
-262144 -1 -1 0 1;
#X obj 1204 330 line;
#X msg 1203 304 \$1 100;
#X obj 1204 467 *~ 10;
#X obj 1203 498 +~ 100;
#X obj 1340 289 vsl 15 128 0 20000 0 0 empty empty empty 0 -9 0 10
-262144 -1 -1 0 1;
#X obj 1292 230 vsl 15 128 0 5000 0 0 empty empty empty 0 -9 0 10 -262144
-1 -1 0 1;
#X obj 202 254 vsl 15 128 0 1 0 0 empty empty empty 0 -9 0 10 -262144
-1 -1 0 1;
#X floatatom 202 387 5 0 0 0 - - -;
#X obj 1388 311 vsl 15 128 0 1 0 0 empty empty empty 0 -9 0 10 -262144
-1 -1 0 1;
#X floatatom 1388 454 5 0 0 0 - - -;
#X obj 947 261 vsl 15 128 0 1 0 0 empty empty empty 0 -9 0 10 -262144
-1 -1 0 1;
#X floatatom 947 407 5 0 0 0 - - -;
#X obj 896 239 vsl 15 128 0 20000 0 0 empty empty empty 0 -9 0 10 -262144
-1 -1 9000 1;
#X obj 805 458 lop~;
#X obj 996 309 vsl 15 128 0 1 0 0 empty empty empty 0 -9 0 10 -262144
-1 -1 0 1;
#X floatatom 996 455 5 0 0 0 - - -;
#X obj 1446 330 vsl 15 128 0 1 0 0 empty empty empty 0 -9 0 10 -262144
-1 -1 0 1;
#X floatatom 1446 474 5 0 0 0 - - -;
#X floatatom 420 381 5 0 0 0 - - -;
#X obj 420 194 vsl 15 128 0 5555 0 0 empty empty empty 0 -9 0 10 -262144
-1 -1 3800 1;
#X obj 420 357 line;
#X msg 419 331 \$1 100;
#X obj 587 351 vsl 15 128 0 1 0 0 empty empty empty 0 -9 0 10 -262144
-1 -1 4100 1;
#X floatatom 587 484 5 0 0 0 - - -;
#X obj 420 441 phasor~;
#X obj 420 464 expr~ $v1>0.5 \;;
#X obj 840 229 vsl 15 128 0 20000 0 0 empty empty empty 0 -9 0 10 -262144
-1 -1 0 1;
#X obj 804 408 hip~;
#X obj 104 566 dac~ 1;
#X obj 420 601 dac~ 1;
#X obj 1203 714 dac~ 1;
#X obj 806 659 dac~ 1;
#X obj 807 549 +~ 0;
#X obj 1203 620 +~ 0;
#X obj 420 534 *~ 0;
#X obj 104 499 *~ 0;
#X obj 1203 557 *~ 0;
#X obj 806 499 *~ 0;
#X connect 0 0 1 0;
#X connect 1 0 46 0;
#X connect 2 0 4 0;
#X connect 3 0 0 0;
#X connect 4 0 3 0;
#X connect 5 0 38 0;
#X connect 6 0 9 0;
#X connect 7 0 47 0;
#X connect 8 0 13 0;
#X connect 9 0 8 0;
#X connect 10 0 12 0;
#X connect 11 0 6 0;
#X connect 12 0 11 0;
#X connect 13 0 14 0;
#X connect 14 0 7 0;
#X connect 15 0 14 1;
#X connect 16 0 13 1;
#X connect 17 0 18 0;
#X connect 18 0 46 1;
#X connect 19 0 20 0;
#X connect 20 0 47 1;
#X connect 21 0 22 0;
#X connect 22 0 48 1;
#X connect 23 0 24 1;
#X connect 24 0 48 0;
#X connect 25 0 26 0;
#X connect 26 0 43 1;
#X connect 27 0 28 0;
#X connect 28 0 44 1;
#X connect 29 0 35 0;
#X connect 30 0 32 0;
#X connect 31 0 29 0;
#X connect 32 0 31 0;
#X connect 33 0 34 0;
#X connect 34 0 45 1;
#X connect 35 0 36 0;
#X connect 36 0 45 0;
#X connect 37 0 38 1;
#X connect 38 0 24 0;
#X connect 43 0 42 0;
#X connect 44 0 41 0;
#X connect 45 0 40 0;
#X connect 46 0 39 0;
#X connect 47 0 44 0;
#X connect 48 0 43 0;
