#N canvas 728 341 753 566 10;
#X floatatom 104 206 5 0 0 0 - - -, f 5;
#X obj 105 356 dac~ 1;
#X obj 105 266 osc~;
#X obj 104 19 vsl 15 128 0 5555 0 0 empty empty empty 0 -9 0 10 -262144
-1 -1 536 1;
#X obj 104 182 line;
#X msg 103 156 \$1 100;
#X obj 537 273 noise~;
#X obj 537 347 dac~ 1;
#X obj 537 293 *~ 0.2;
#X floatatom 295 221 5 0 0 0 - - -, f 5;
#X obj 294 491 dac~ 1;
#X obj 294 401 osc~;
#X obj 295 311 osc~;
#X floatatom 295 284 5 0 0 0 - - -, f 5;
#X obj 267 17 vsl 15 128 0 1234 0 0 empty empty empty 0 -9 0 10 -262144
-1 -1 2149 1;
#X obj 295 197 line;
#X msg 294 171 \$1 100;
#X obj 295 334 *~ 10;
#X obj 294 365 +~ 100;
#X obj 402 175 vsl 15 128 0 1234 0 0 empty empty empty 0 -9 0 10 -262144
-1 -1 8770 1;
#X obj 456 178 vsl 15 128 0 1234 0 0 empty empty empty 0 -9 0 10 -262144
-1 -1 850 1;
#X obj 105 289 *~ 1;
#X obj 294 424 *~ 0.5;
#X obj 253 255 vsl 15 128 0 1 0 0 empty empty empty 0 -9 0 10 -262144
-1 -1 0 1;
#X floatatom 253 388 5 0 0 0 - - -, f 5;
#X obj 479 178 vsl 15 128 0 1 0 0 empty empty empty 0 -9 0 10 -262144
-1 -1 6700 1;
#X floatatom 479 311 5 0 0 0 - - -, f 5;
#X obj 554 92 vsl 15 128 0 1 0 0 empty empty empty 0 -9 0 10 -262144
-1 -1 4900 1;
#X floatatom 554 225 5 0 0 0 - - -, f 5;
#X connect 0 0 2 0;
#X connect 2 0 21 0;
#X connect 3 0 5 0;
#X connect 4 0 0 0;
#X connect 5 0 4 0;
#X connect 6 0 8 0;
#X connect 8 0 7 0;
#X connect 9 0 13 0;
#X connect 11 0 22 0;
#X connect 12 0 17 0;
#X connect 13 0 12 0;
#X connect 14 0 16 0;
#X connect 15 0 9 0;
#X connect 16 0 15 0;
#X connect 17 0 18 0;
#X connect 18 0 11 0;
#X connect 19 0 18 1;
#X connect 20 0 17 1;
#X connect 21 0 1 0;
#X connect 22 0 10 0;
#X connect 23 0 24 0;
#X connect 24 0 21 1;
#X connect 25 0 26 0;
#X connect 26 0 22 1;
#X connect 27 0 28 0;
#X connect 28 0 8 1;
